<svg viewBox="0 0 200 200" fill="none" xmlns="http://www.w3.org/2000/svg">
  <defs>
    <linearGradient id="bookGrad" x1="0%" y1="0%" x2="100%" y2="100%">
      <stop offset="0%" style="stop-color:#87CEEB;stop-opacity:1" />
      <stop offset="100%" style="stop-color:#4169E1;stop-opacity:1" />
    </linearGradient>
  </defs>
  <circle cx="100" cy="70" r="30" fill="#FFD4A3"/>
  <path d="M70 60 Q70 35 100 35 Q130 35 130 60" fill="#8B4513"/>
  <circle cx="75" cy="55" r="8" fill="#8B4513"/>
  <circle cx="125" cy="55" r="8" fill="#8B4513"/>
  <circle cx="90" cy="70" r="4" fill="#000"/>
  <circle cx="110" cy="70" r="4" fill="#000"/>
  <circle cx="91" cy="69" r="1.5" fill="#FFF"/>
  <circle cx="111" cy="69" r="1.5" fill="#FFF"/>
  <path d="M85 80 Q100 87 115 80" stroke="#000" stroke-width="2" fill="none"/>
  <circle cx="80" cy="75" r="5" fill="#FFB6C1" opacity="0.5"/>
  <circle cx="120" cy="75" r="5" fill="#FFB6C1" opacity="0.5"/>
  <rect x="75" y="95" width="50" height="65" rx="10" fill="#FF69B4"/>
  <rect x="55" y="110" width="45" height="35" rx="3" fill="url(#bookGrad)"/>
  <line x1="77.5" y1="110" x2="77.5" y2="145" stroke="#FFF" stroke-width="2"/>
  <text x="62" y="130" font-family="Arial" font-size="12" fill="#FFF">ABC</text>
  <path d="M40 50 L42 55 L47 55 L43 58 L45 63 L40 60 L35 63 L37 58 L33 55 L38 55 Z" fill="#FFD700"/>
  <path d="M155 85 L157 90 L162 90 L158 93 L160 98 L155 95 L150 98 L152 93 L148 90 L153 90 Z" fill="#FFD700"/>
  <path d="M50 120 L51 123 L54 123 L51.5 125 L52.5 128 L50 126 L47.5 128 L48.5 125 L46 123 L49 123 Z" fill="#FFD700"/>
</svg>
